<svg width="180" height="56" viewBox="0 0 180 56" fill="none" xmlns="http://www.w3.org/2000/svg">
<path d="M75.1684 19.975C75.392 19.3 75.7647 18.85 76.3609 18.625C76.9572 18.475 77.7025 18.325 78.6714 18.325C79.7148 18.325 80.4601 18.4 81.0563 18.625C81.6526 18.775 82.0252 19.225 82.2488 19.975L87.615 37.525C87.615 37.6 87.5405 37.675 87.3914 37.675H83.8885C83.7394 37.675 83.5904 37.6 83.5159 37.45L82.0998 32.8C82.0252 32.65 81.9507 32.5 81.7271 32.5H75.4666C75.3175 32.5 75.1684 32.575 75.0939 32.8L73.6778 37.375C73.6033 37.525 73.5288 37.675 73.3052 37.675H69.8022C69.6532 37.675 69.5786 37.6 69.5786 37.525L75.1684 19.975ZM79.044 22.375C78.9695 22.15 78.9695 22.075 78.895 22C78.895 21.925 78.8204 21.925 78.6714 21.925C78.5968 21.925 78.4478 22.075 78.3732 22.375L76.51 28.525V28.6C76.51 28.6 76.51 28.6 76.51 28.675C76.51 28.825 76.5845 28.9 76.7336 28.9H80.7582C80.9073 28.9 80.9818 28.825 80.9818 28.675C80.9818 28.675 80.9818 28.675 80.9818 28.6V28.525L79.044 22.375Z" fill="black"/>
<path d="M89.3292 25.225C89.3292 24.775 89.4783 24.4 89.8509 24.1C90.2236 23.8 90.5963 23.65 90.9689 23.65H96.4842C96.9313 23.65 97.3785 23.725 97.7512 23.95C98.1238 24.175 98.422 24.4 98.6456 24.55C98.7201 24.625 98.8691 24.775 98.9437 24.85C99.0927 25 99.1673 25 99.1673 25C99.1673 25 99.2418 25 99.3163 24.925C99.3909 24.85 99.4654 24.775 99.5399 24.7C99.6144 24.625 99.7635 24.475 99.838 24.325C99.9871 24.175 100.136 24.1 100.36 24.025C100.732 23.8 101.105 23.725 101.478 23.725C101.85 23.725 102.074 23.65 102.223 23.65H104.161C104.906 23.65 105.577 23.8 106.173 24.1C106.769 24.4 107.291 24.7 107.738 25.15C108.185 25.6 108.484 26.05 108.782 26.575C109.005 27.1 109.154 27.625 109.154 28.15V37.45C109.154 37.6 109.08 37.75 108.856 37.75H106.173C105.95 37.75 105.875 37.675 105.875 37.45V28.45C105.875 28.15 105.8 27.925 105.651 27.7C105.502 27.475 105.353 27.25 105.204 27.1C104.981 26.95 104.832 26.8 104.608 26.725C104.384 26.65 104.161 26.575 104.012 26.575H102.223C101.925 26.575 101.552 26.725 101.254 26.95C100.956 27.175 100.807 27.55 100.807 28V37.375C100.807 37.525 100.732 37.675 100.509 37.675H97.7512C97.6021 37.675 97.4531 37.6 97.4531 37.375V28.075C97.4531 27.7 97.304 27.4 96.9313 27.1C96.5587 26.8 96.186 26.65 95.8134 26.65H93.3539C93.1303 26.65 92.9812 26.725 92.8322 26.875C92.6831 27.025 92.6086 27.25 92.6086 27.475V37.45C92.6086 37.6 92.534 37.75 92.3105 37.75H89.5528C89.4038 37.75 89.2547 37.675 89.2547 37.45V25.225H89.3292Z" fill="black"/>
<path d="M124.508 32.2C124.508 33.25 124.433 34.15 124.21 34.9C123.986 35.575 123.762 36.175 123.39 36.55C123.017 37 122.495 37.225 121.899 37.45C121.303 37.6 120.632 37.675 119.812 37.675H115.042C114.222 37.675 113.552 37.525 113.03 37.225C112.508 36.925 112.061 36.55 111.763 36.1C111.465 35.65 111.241 35.05 111.092 34.45C110.943 33.85 110.869 33.25 110.869 32.575V27.85C110.869 27.175 110.943 26.65 111.167 26.125C111.39 25.6 111.688 25.15 112.061 24.775C112.434 24.4 112.881 24.1 113.403 23.95C113.924 23.725 114.446 23.65 115.042 23.65H120.483C120.93 23.65 121.452 23.725 121.974 23.95C122.495 24.1 122.868 24.4 123.315 24.775C123.688 25.15 123.986 25.525 124.284 26.05C124.508 26.575 124.657 27.1 124.657 27.775V32.2H124.508ZM121.228 28.3C121.228 28.075 121.154 27.925 121.005 27.7C120.856 27.55 120.707 27.4 120.483 27.25C120.259 27.1 120.036 27.025 119.738 27.025C119.44 26.95 119.216 26.95 118.918 26.95H116.011C115.788 26.95 115.564 26.95 115.34 27.025C115.117 27.1 114.893 27.175 114.744 27.25C114.521 27.325 114.372 27.475 114.297 27.7C114.148 27.85 114.073 28.075 114.073 28.375V32.725C114.073 33.1 114.148 33.4 114.297 33.625C114.446 33.85 114.67 34.075 114.893 34.15C115.117 34.3 115.34 34.375 115.639 34.45C115.937 34.525 116.16 34.525 116.384 34.525H118.843C119.514 34.525 120.036 34.375 120.483 34.075C120.93 33.775 121.228 33.4 121.228 32.95V30.775V28.3Z" fill="black"/>
<path d="M130.023 23.65H135.091C135.911 23.65 136.656 23.8 137.252 24.175C137.849 24.55 138.37 25 138.743 25.6C139.116 26.2 139.414 26.95 139.637 27.85C139.861 28.75 139.935 29.725 139.935 30.775C139.935 31.6 139.861 32.425 139.637 33.25C139.414 34.075 139.116 34.825 138.743 35.5C138.37 36.175 137.849 36.7 137.252 37.15C136.656 37.6 135.911 37.75 135.091 37.75H126.744C126.594 37.75 126.445 37.675 126.445 37.45V18.625C126.445 18.475 126.52 18.325 126.744 18.325H129.501C129.65 18.325 129.799 18.4 129.799 18.625V23.35C129.725 23.575 129.874 23.65 130.023 23.65ZM129.725 34.15C129.725 34.3 129.799 34.45 130.023 34.45H132.93C133.451 34.45 133.973 34.375 134.42 34.3C134.867 34.225 135.24 34 135.613 33.7C135.911 33.4 136.209 33.1 136.358 32.575C136.507 32.125 136.656 31.525 136.656 30.775C136.656 29.95 136.582 29.35 136.358 28.825C136.209 28.3 135.911 27.925 135.613 27.625C135.315 27.325 134.867 27.175 134.42 27.025C133.973 26.95 133.451 26.875 132.93 26.875H130.023C129.874 26.875 129.725 26.95 129.725 27.175V34.15Z" fill="black"/>
<path d="M142.246 23.65H149.773C150.444 23.65 151.041 23.8 151.488 24.1C151.935 24.4 152.308 24.775 152.606 25.225C152.904 25.675 153.127 26.2 153.276 26.8C153.425 27.4 153.5 27.925 153.5 28.525V37.45C153.5 37.6 153.425 37.75 153.202 37.75H143.886C143.364 37.75 142.917 37.6 142.544 37.225C142.171 36.925 141.948 36.475 141.724 36.025C141.501 35.575 141.426 35.125 141.352 34.675C141.277 34.225 141.277 33.85 141.277 33.625C141.277 33.175 141.352 32.725 141.426 32.2C141.501 31.675 141.724 31.225 141.948 30.775C142.171 30.325 142.47 29.95 142.842 29.65C143.215 29.35 143.662 29.2 144.184 29.2H148.656C149.103 29.2 149.475 29.125 149.773 28.9C150.072 28.675 150.221 28.375 150.221 28.075C150.221 27.85 150.146 27.55 149.923 27.325C149.773 27.1 149.475 26.95 149.252 26.95H142.171C142.022 26.95 141.873 26.875 141.873 26.65V23.875C141.948 23.725 142.022 23.65 142.246 23.65ZM149.923 34.525C150.072 34.525 150.221 34.45 150.221 34.225V32.575C150.221 32.425 150.146 32.275 149.923 32.275H145.153C144.929 32.275 144.705 32.35 144.556 32.575C144.407 32.8 144.333 33.025 144.333 33.25C144.333 33.55 144.407 33.85 144.631 34.075C144.78 34.3 145.078 34.45 145.376 34.45H149.923V34.525Z" fill="black"/>
<path d="M39.6174 41.275H34.5493C32.686 41.275 31.1954 39.775 31.1954 37.9V32.8H39.6174V41.275Z" fill="#5492FD"/>
<path d="M62.2001 28.075H44.3128V10H55.1197C59.0698 10 62.2747 13.225 62.2747 17.2V28.075H62.2001ZM57.4302 40.975V32.8H44.3128V46H52.4366C55.1943 46 57.4302 43.75 57.4302 40.975ZM39.6174 14.875H31.5681C28.7359 14.875 26.5 17.2 26.5 19.975V28.075H39.6174V14.875Z" fill="#5492FD"/>
</svg>
