<svg width="404" height="322" viewBox="0 0 404 322" fill="none" xmlns="http://www.w3.org/2000/svg">
<path d="M201.43 114.007H199.956V267.7H201.43V114.007Z" fill="#F3F3F3"/>
<path d="M216.51 95.0645H200.682V99.0594H216.51V95.0645Z" fill="white"/>
<path d="M213.362 102.462H200.682V106.457H213.362V102.462Z" fill="white"/>
<path d="M218.051 276.787H201.43V282.121H218.051V276.787Z" fill="white"/>
<path d="M261.463 36.0635C261.463 36.0635 300.56 82.2678 275.75 112.185C250.962 142.103 244.138 112.778 244.138 112.778C244.138 112.778 229.3 115.522 254.991 78.0974C267.12 60.4497 261.463 36.0635 261.463 36.0635Z" fill="url(#paint0_linear_6_1781)"/>
<path d="M347.142 0C347.142 0 376.178 42.7362 325.634 91.9477C275.09 141.181 278.832 170.528 278.832 170.528C278.832 170.528 227.121 69.6467 347.142 0Z" fill="url(#paint1_linear_6_1781)"/>
<path d="M269.388 151.98C248.188 153.89 272.778 96.7108 305.931 81.7849C339.062 66.8591 367.108 68.1322 386.481 52.3722C386.459 52.3502 373.823 142.586 269.388 151.98Z" fill="url(#paint2_linear_6_1781)"/>
<path d="M159.912 114.007H158.437V267.7H159.912V114.007Z" fill="#F3F3F3"/>
<path d="M264.369 114.007H262.894V267.7H264.369V114.007Z" fill="#F3F3F3"/>
<path d="M187.408 95.0645H158.041V99.0594H187.408V95.0645Z" fill="white"/>
<path d="M176.819 102.462H158.041V106.457H176.819V102.462Z" fill="white"/>
<path d="M282.574 95.0645H264.369V99.0594H282.574V95.0645Z" fill="white"/>
<path d="M285.59 102.462H264.369V106.457H285.59V102.462Z" fill="white"/>
<path d="M403.277 108.3H376.772V112.295H403.277V108.3Z" fill="white"/>
<path d="M397.994 115.697H376.772V119.692H397.994V115.697Z" fill="white"/>
<path d="M175.784 276.787H159.164V282.121H175.784V276.787Z" fill="white"/>
<path d="M280.989 276.787H264.369V282.121H280.989V276.787Z" fill="white"/>
<path d="M128.256 290.001H285.392C292.679 290.001 298.579 284.118 298.579 276.853V61.0424C298.579 53.777 292.679 47.8945 285.392 47.8945H128.256C120.969 47.8945 115.069 53.777 115.069 61.0424V276.831C115.047 284.118 120.969 290.001 128.256 290.001Z" fill="url(#paint3_linear_6_1781)"/>
<path d="M287.726 19.2719H134.772C129.885 19.2719 125.9 23.2229 125.9 28.1177V277.796H287.704V19.2719H287.726Z" fill="#F5F5F5"/>
<path d="M272.646 69.6467H224.941V75.6609H272.646V69.6467Z" fill="url(#paint4_linear_6_1781)"/>
<path d="M268.727 94.867H224.941V100.881H268.727V94.867Z" fill="url(#paint5_linear_6_1781)"/>
<path d="M262.828 82.2678H224.941V88.2821H262.828V82.2678Z" fill="url(#paint6_linear_6_1781)"/>
<path d="M173.737 108.234C168.321 108.234 163.082 107.115 158.195 104.898C144.81 98.818 136.137 85.4286 136.137 70.7661C136.137 50.1114 153 33.2979 173.715 33.2979C194.43 33.2979 211.293 50.1114 211.293 70.7661C211.293 85.4286 202.641 98.818 189.235 104.898C184.392 107.115 179.152 108.234 173.737 108.234ZM173.737 35.2733C154.1 35.2733 138.14 51.1869 138.14 70.7661C138.14 84.6604 146.329 97.3474 159.031 103.098C163.654 105.205 168.608 106.259 173.737 106.259C178.866 106.259 183.819 105.205 188.442 103.098C201.122 97.3474 209.334 84.6604 209.334 70.7661C209.334 51.1869 193.373 35.2733 173.737 35.2733Z" fill="url(#paint7_linear_6_1781)"/>
<path d="M190.974 123.314H136.159V128.67H190.974V123.314Z" fill="#4E7ED6"/>
<path d="M190.974 137.757H136.159V143.113H190.974V137.757Z" fill="#E0E0E0"/>
<path d="M190.974 152.178H136.159V157.534H190.974V152.178Z" fill="#E0E0E0"/>
<path d="M211.337 123.314H202.179V128.67H211.337V123.314Z" fill="#4E7ED6"/>
<path d="M211.337 137.757H202.179V143.113H211.337V137.757Z" fill="#E0E0E0"/>
<path d="M211.337 152.178H202.179V157.534H211.337V152.178Z" fill="#E0E0E0"/>
<path d="M317.467 283.745H240.836C231.744 283.745 224.391 276.392 224.391 267.348V134.333C224.391 125.267 231.766 117.936 240.836 117.936H317.467C326.558 117.936 333.911 125.289 333.911 134.333V267.348C333.911 276.392 326.536 283.745 317.467 283.745Z" fill="#F5F5F5"/>
<path d="M321.099 142.586C318.413 135.101 311.237 130.513 303.686 130.733C301.859 130.777 300.009 131.128 298.182 131.765C292.679 133.718 288.716 138.108 287.109 143.266C285.986 146.844 285.986 150.817 287.351 154.614C287.483 154.987 287.638 155.361 287.792 155.734C288.518 157.38 289.443 158.873 290.565 160.19C295.254 165.699 303.047 168.004 310.268 165.436C319.58 162.099 324.445 151.871 321.099 142.586ZM308.749 161.221C303.334 163.153 297.5 161.419 293.978 157.292C293.141 156.304 292.437 155.185 291.886 153.956C291.776 153.692 291.666 153.407 291.556 153.122C290.543 150.268 290.543 147.305 291.38 144.605C292.591 140.72 295.563 137.45 299.679 135.979C301.044 135.496 302.431 135.233 303.796 135.189C309.453 135.013 314.847 138.459 316.85 144.078C319.382 151.058 315.727 158.719 308.749 161.221Z" fill="#E0E0E0"/>
<path d="M291.38 144.605L287.087 143.266C288.716 138.108 292.657 133.718 298.16 131.765C299.987 131.106 301.837 130.777 303.664 130.733L303.796 135.211C302.431 135.255 301.044 135.496 299.679 136.001C295.563 137.45 292.613 140.742 291.38 144.605Z" fill="#537FFD"/>
<path d="M291.886 153.956L287.77 155.734C287.616 155.361 287.461 154.987 287.329 154.614C285.964 150.817 285.964 146.844 287.087 143.266L291.38 144.605C290.543 147.283 290.521 150.268 291.556 153.122C291.666 153.407 291.776 153.67 291.886 153.956Z" fill="#4BA6F3"/>
<path d="M290.565 160.19C289.443 158.873 288.496 157.38 287.792 155.734L291.908 153.956C292.437 155.185 293.163 156.304 294 157.292L290.565 160.19Z" fill="#46BBED"/>
<path d="M304.06 246.321H294.396V277.906H304.06V246.321Z" fill="#46BBED"/>
<path d="M289.707 255.166H280.043V277.906H289.707V255.166Z" fill="#46BBED"/>
<path d="M317.995 231.658H308.331V277.906H317.995V231.658Z" fill="#46BBED"/>
<path d="M239.008 243.05L238.172 242.413L253.912 221.978L273.35 223.032L288.012 199.765L303.796 198.141L313.284 179.418L314.23 179.9L304.478 199.129L288.628 200.753L273.923 224.129L254.418 223.054L239.008 243.05Z" fill="#46BBED"/>
<path d="M268.793 141.466H241.32C239.581 141.466 238.172 140.062 238.172 138.328C238.172 136.594 239.581 135.189 241.32 135.189H268.793C270.533 135.189 271.941 136.594 271.941 138.328C271.941 140.062 270.533 141.466 268.793 141.466Z" fill="#4E7ED6"/>
<path d="M268.793 152.397H241.32C239.581 152.397 238.172 150.993 238.172 149.259C238.172 147.525 239.581 146.12 241.32 146.12H268.793C270.533 146.12 271.941 147.525 271.941 149.259C271.941 150.993 270.533 152.397 268.793 152.397Z" fill="#E0E0E0"/>
<path d="M268.793 163.306H241.32C239.581 163.306 238.172 161.902 238.172 160.168C238.172 158.434 239.581 157.029 241.32 157.029H268.793C270.533 157.029 271.941 158.434 271.941 160.168C271.941 161.924 270.533 163.306 268.793 163.306Z" fill="#E0E0E0"/>
<path d="M179.549 246.364C179.549 246.364 168.674 243.291 155.377 246.364L161.761 213.769C161.739 213.769 177.655 230.604 179.549 246.364Z" fill="#B3B7C4"/>
<path d="M214.044 190.195C214.044 190.195 216.488 191.929 217.215 191.731C217.941 191.512 219.152 191.863 219.834 191.797C220.517 191.731 222.322 190.875 223.026 191.051C223.312 191.117 224.963 192.28 225.58 192.368C226.196 192.456 227.451 192.478 227.385 193.004C227.297 193.531 226.174 193.817 226.174 193.817C226.174 193.817 226.725 193.926 226.791 194.409C226.923 195.353 226.438 195.682 226.438 195.682C226.438 195.682 226.945 196.165 226.901 196.56C226.813 197.46 226.306 197.746 226.306 197.746C226.306 197.746 226.526 198.207 226.328 198.799C226.064 199.546 225.294 199.633 225.294 199.633C225.294 199.633 225.184 200.621 224.633 200.775C224.083 200.906 223.599 200.709 223.158 200.709C222.696 200.687 218.8 199.348 216.466 197.329C214.133 195.309 211.447 194.124 211.447 194.124L214.044 190.195Z" fill="#EEA987"/>
<path d="M163.918 123.511C163.918 123.511 160.264 121.185 156.984 125.333C153.704 129.482 154.871 133.477 155.575 137.186C156.258 140.874 159.582 149.324 158.173 153.056C156.764 156.787 158.569 158.719 158.569 158.719C158.569 158.719 169.884 161.616 168.563 144.649C167.221 127.682 163.918 123.511 163.918 123.511Z" fill="#FCCCA2"/>
<path d="M168.762 155.558C168.762 155.558 173.076 154.965 175.96 157.139C178.844 159.29 180.825 163.35 181.706 164.623C182.586 165.896 192.911 177.266 193.439 177.464C193.968 177.662 200.374 181.195 204.711 184.071C209.047 186.924 215.85 190.37 215.85 190.37L212.151 194.892C212.151 194.892 193.924 188.395 190.137 184.861C186.087 181.086 167.375 162.45 167.375 162.45C167.375 162.45 162.664 158.653 168.762 155.558Z" fill="#DBDFF0"/>
<path d="M200.11 313.618C200.11 313.618 204.777 319.874 204.138 320.862C203.5 321.85 198.591 322.003 195.619 320.862C192.625 319.721 192.559 312.389 191.216 309.25C190.644 307.933 191.854 304.048 193.549 303.763C195.245 303.478 197.094 304.312 197.094 304.312C197.094 304.312 195.333 308.724 200.11 313.618Z" fill="#1D3B54"/>
<path d="M197.138 304.246C197.138 304.246 198.128 306.902 198.481 309.448C198.789 311.555 201.805 316.033 201.651 316.604C201.519 317.174 197.666 317.679 196.103 316.231C194.54 314.76 193.527 310.524 193.197 307.977C192.867 305.607 192.471 304.444 192.471 304.444C192.471 304.444 195.641 302.688 197.138 304.246Z" fill="#EEA886"/>
<path d="M191.084 308.702V315.243H191.942V310.172L191.084 308.702Z" fill="#1D3B54"/>
<path d="M159.538 313.706C159.538 313.706 164.029 319.852 163.39 320.84C162.752 321.828 157.843 321.981 154.871 320.84C151.877 319.699 151.811 312.367 150.468 309.229C149.896 307.912 151.106 304.026 152.801 303.741C154.497 303.456 156.5 304.356 156.5 304.356C156.5 304.356 154.761 308.833 159.538 313.706Z" fill="#1D3B54"/>
<path d="M156.522 304.356C156.522 304.356 156.874 307.253 157.446 309.316C158.019 311.38 161.079 316.055 160.925 316.604C160.793 317.174 156.94 317.679 155.377 316.231C153.814 314.76 152.603 310.546 152.471 307.977C152.339 305.409 152.823 303.741 152.823 303.741C152.823 303.741 155.025 302.797 156.522 304.356Z" fill="#EEA886"/>
<path d="M150.358 308.702V315.243H151.194V310.172L150.358 308.702Z" fill="#1D3B54"/>
<path d="M178.954 202.509C178.954 202.509 182.961 221.056 183.863 225.732C184.788 230.407 187.364 253.015 187.628 256.878C187.914 260.72 191.81 275.206 191.612 276.589C191.436 277.972 197.6 305.212 197.6 305.212C197.6 305.212 191.238 306.946 190.159 305.782C189.257 304.795 180.099 279.86 180.099 273.011C180.099 263.507 172.922 251.435 171.998 249.306C163.566 229.573 165.371 223.229 164.249 221.956C163.148 220.683 163.06 222.746 162.4 225.578C161.761 228.409 160.374 252.949 159.56 256.066C158.723 259.183 159.384 269.719 158.921 275.031C158.459 280.343 157.931 304.136 157.931 304.136C157.931 304.136 153.33 305.19 151.128 304.18C150.49 303.895 148.905 277.665 148.817 271.343C148.729 265.022 148.619 256.308 148.443 253.586C146.748 227.4 144.238 223.69 149.147 205.121C158.657 169.518 178.954 202.509 178.954 202.509Z" fill="#3B3B40"/>
<path d="M168.608 153.1C168.608 153.1 172.79 155.075 174.221 155.361C175.674 155.646 181.288 162.933 182.278 165.589C183.269 168.245 182.278 172.24 180.253 176.915C178.228 181.591 180.143 183.149 179.218 187.846C178.294 192.522 179.174 203.496 179.35 206.108C179.526 208.721 158.019 212.013 149.741 203.716C149.741 203.716 154.232 195.309 154.915 194.168C155.619 193.004 155.025 186.705 154.386 185.103C153.748 183.478 149.499 169.716 149.499 169.716C149.499 169.716 146.021 159.136 149.169 156.721C151.899 154.614 159.318 153.868 160.66 153.407C162.003 152.88 165.878 152.683 168.608 153.1Z" fill="#E8734D"/>
<path d="M169.95 162.363L172.482 159.399L170.281 151.607C170.281 151.607 169.532 155.953 169.95 162.363Z" fill="#D6C5BE"/>
<path d="M170.611 148.293C170.611 148.293 169.774 155.931 169.95 158.412C169.95 158.412 165.614 162.736 160.682 153.363C160.682 153.363 162.752 149.5 161.189 144.21C159.626 138.92 170.611 148.293 170.611 148.293Z" fill="#EEA886"/>
<path d="M169.95 158.412V162.363L164.953 158.653L169.95 158.412Z" fill="#EEA886"/>
<path d="M169.95 162.363L167.859 159.816L160.881 152.88L158.635 155.031L169.95 162.363Z" fill="#D6C5BE"/>
<path d="M172.482 159.399L175.674 160.277L170.281 151.607L172.482 159.399Z" fill="#FAE6DE"/>
<path d="M167.859 159.816L164.953 163.636L158.987 153.473L161.057 152.419L167.859 159.816Z" fill="#FAE6DE"/>
<path d="M170.435 149.961L170.281 151.497C170.281 151.497 166.824 152.134 162.311 146.647C162.334 146.647 165.526 150.554 170.435 149.961Z" fill="#A77860"/>
<path d="M169.554 150.071C170.919 150.027 174.705 149.588 176.577 140.874C178.866 130.228 173.803 124.719 169.488 123.687C165.173 122.655 161.189 124.17 158.965 129.723C158.965 129.723 157.358 134.069 159.978 141.774C162.598 149.522 168.101 150.137 169.554 150.071Z" fill="#EEA987"/>
<path d="M166.076 130.601C166.076 130.601 171.888 130.952 177.281 139.052C177.281 139.052 179.813 129.328 173.208 124.894C166.604 120.46 161.981 124.28 160.374 126.211C160.374 126.211 158.063 126.738 157.997 131.106C157.931 135.474 154.981 142.081 161.453 145.198C161.453 145.198 160.837 140.215 161.409 139.074C161.959 137.91 163.941 138.679 166.076 130.601Z" fill="#FCCCA2"/>
<path d="M161.717 137.12C161.431 136.374 160.616 136.067 160.198 136.879C159.758 137.691 160.286 140.83 161.453 141.181C162.598 141.51 162.311 138.657 161.717 137.12Z" fill="#EEA987"/>
<path d="M158.987 153.473C158.987 153.473 165.548 161.287 166.23 177.727C166.912 194.168 161.057 246.694 161.431 253.081L144.436 244.872C144.436 244.872 144.524 218.378 150.226 201.697C156.896 182.139 149.301 176.169 148.619 164.14C148.619 164.14 148.927 155.339 153.858 154.526C158.459 153.802 158.987 153.473 158.987 153.473Z" fill="#DBDFF0"/>
<path d="M172.174 154.636C172.174 154.636 174.838 154.944 175.674 155.931C176.511 156.919 181.794 162.977 182.168 164.755C182.542 166.533 183.775 167.872 181.244 176.169C178.976 183.61 179.549 191.951 180.011 195.287C180.473 198.624 188.618 243.708 188.178 244.872C187.738 246.035 184.348 248.779 184.348 248.779C184.348 248.779 177.061 204.331 177.149 196.89C177.215 189.471 180.143 167.345 172.174 154.636Z" fill="#DBDFF0"/>
<path d="M227.935 178.122L222.256 207.316L203.478 203.672L208.431 174.347L227.935 178.122Z" fill="#616161"/>
<path d="M226.527 179.549L221.485 205.472L204.799 202.245L209.201 176.191L226.527 179.549Z" fill="#E0CEC7"/>
<path d="M221.243 179.198L221.595 177.376L214.859 176.059L214.243 177.837L221.243 179.198Z" fill="#616161"/>
<path d="M225.822 193.553C225.822 193.553 222.454 192.456 221.463 193.092C220.473 193.729 221.661 194.19 221.661 194.19C221.661 194.19 220.495 193.707 220.032 194.585C219.57 195.463 221.001 195.924 221.001 195.924C221.001 195.924 220.01 195.792 219.9 196.824C219.768 197.855 221.045 197.965 221.045 197.965C221.045 197.965 219.57 198.536 220.495 199.48C222.058 201.06 224.655 200.819 224.655 200.819C224.655 200.819 225.294 200.665 225.338 199.655C225.338 199.655 226.879 199.392 226.394 197.724C226.394 197.724 227.649 196.363 226.416 195.638C226.416 195.66 227.737 194.102 225.822 193.553Z" fill="#DB9C7C"/>
<path d="M144.37 210.301C144.37 210.301 143.688 213.462 145.075 215.591C145.603 216.403 145.097 222.571 145.052 223.361C145.008 223.998 144.436 224.568 144.194 224.415C143.952 224.283 143.908 220.859 143.534 219.761C143.225 218.839 142.961 218.488 142.785 218.773C142.609 219.059 143.181 224.019 143.512 225.666C143.842 227.312 143.423 230.78 142.565 230.209C141.706 229.661 138.845 221.956 139.065 219.41C139.285 216.842 140.253 213.637 140.253 213.637L144.37 210.301Z" fill="#EEA886"/>
<path d="M157.975 153.934C157.975 153.934 151.194 153.517 147.782 157.468C144.37 161.419 144.568 166.116 143.688 168.157C142.829 170.199 140.848 178.957 140.408 180.383C139.967 181.81 139.549 189.778 138.933 196.209C138.316 202.64 138.448 214.625 138.448 214.625L144.942 213.462C144.942 213.462 145.207 202.026 145.361 195.397C145.537 188.768 150.93 177.069 152.978 171.933C155.025 166.796 163.17 157.16 157.975 153.934Z" fill="#DBDFF0"/>
<path d="M363.036 252.093C363.036 252.093 352.161 249.02 338.864 252.093L345.248 219.498C345.226 219.498 361.142 236.355 363.036 252.093Z" fill="#B3B7C4"/>
<path d="M333.691 307.89C333.691 307.89 328.738 316.274 326.646 317.635C323.807 319.501 325.59 321.367 326.933 321.367C328.275 321.367 335.166 321.85 336.685 320.138C338.204 318.426 338.952 313.267 340.361 311.928C341.77 310.59 343.069 305.607 339.679 303.917C335.958 302.095 333.691 307.89 333.691 307.89Z" fill="#2D2D30"/>
<path d="M335.54 303.5C335.54 303.5 330.147 314.014 329.178 315.484C328.209 316.933 331.027 316.933 332.766 316.253C334.505 315.572 339.062 308.592 339.547 307.231C340.031 305.892 339.679 303.939 339.679 303.939L335.54 303.5Z" fill="#EEA886"/>
<path d="M341.594 309.492L340.273 319.545L339.591 319.589L339.789 312.346L341.594 309.492Z" fill="#2D2D30"/>
<path d="M376.2 299.724C376.2 299.724 375.011 309.382 373.646 311.467C371.775 314.299 374.175 315.309 375.407 314.782C376.64 314.255 383.156 311.95 383.861 309.777C384.565 307.604 383.201 302.578 383.949 300.778C384.697 298.978 383.905 293.908 380.119 293.71C375.958 293.491 376.2 299.724 376.2 299.724Z" fill="#2D2D30"/>
<path d="M376.156 294.961C376.156 294.961 375.43 306.748 375.121 308.482C374.813 310.194 377.389 309.075 378.71 307.758C380.031 306.419 381.395 298.232 381.307 296.805C381.219 295.378 380.119 293.732 380.119 293.732L376.156 294.961Z" fill="#EEA886"/>
<path d="M384.081 298.034L386.921 307.78L386.305 308.087L383.597 301.371L384.081 298.034Z" fill="#2D2D30"/>
<path d="M329.288 211.311C329.288 211.311 329.134 213.132 329.244 215.086C329.31 216.03 327.725 221.671 327.461 222.373C327.241 222.966 326.955 222.483 326.867 222.022C326.823 221.759 327.065 219.717 327.021 218.576C326.999 217.632 326.823 217.215 326.58 217.457C326.338 217.698 324.951 221.188 324.797 222.812C324.643 224.437 323.212 227.861 322.552 227.114C321.891 226.346 322.002 219.388 322.904 217.018C323.807 214.669 325.612 211.925 325.612 211.925L329.288 211.311Z" fill="#EEA886"/>
<path d="M330.037 212.672C330.301 211.925 336.795 201.543 338.336 198.229C339.899 194.914 341.242 191.885 341.99 190.59C342.034 190.502 342.122 190.349 342.232 190.151C342.739 189.185 343.839 187.034 344.962 185.037C345.05 184.905 345.116 184.751 345.204 184.62L345.402 183.829C346.173 182.447 345.733 181.525 345.887 180.361C345.931 180.01 346.041 179.637 346.239 179.22C346.239 179.198 346.261 179.198 346.261 179.176C347.208 177.31 347.956 175.664 348.198 174.698C348.969 171.538 352.711 157.534 352.711 157.534C352.711 157.534 346.679 159.663 345.733 161.814C344.302 165.084 342.629 170.001 342.166 171.516C341.704 173.03 337.455 185.651 336.575 188.197C335.694 190.766 334.792 192.917 333.823 194.541C332.854 196.187 325.788 211.025 325.282 212.364C325.259 212.386 329.75 213.418 330.037 212.672Z" fill="#DBDFF0"/>
<path d="M355.507 226.39C355.265 227.575 353.68 232.558 351.919 238.089C350.312 243.138 348.528 248.625 347.472 252.137C347.075 253.454 346.767 254.486 346.613 255.1C345.601 259.249 346.745 265.768 347.119 271.234C347.494 276.677 345.402 304.312 345.402 304.312C344.015 304.949 335.1 303.807 335.1 303.807C336.112 301.876 336.443 267.107 335.87 265C335.32 262.871 334.946 256.966 335.496 254.661C335.606 254.179 335.672 253.564 335.672 252.818C335.716 249.898 335.122 245.091 334.748 239.801C334.285 233.151 336.883 216.622 337.257 215.13C337.301 214.998 337.345 214.801 337.411 214.559C338.094 212.233 340.295 205.648 340.295 205.648C344.742 204.331 348.11 204.089 350.62 204.594C353.944 205.274 355.771 207.25 356.674 209.774C358.831 215.788 355.815 224.832 355.507 226.39Z" fill="#3B3B40"/>
<path d="M381.307 293.71L374.153 299.483C373.382 295.795 356.982 266.58 355.859 263.705C354.736 260.851 353.548 255.298 353.548 253.257C353.548 252.884 353.526 252.291 353.46 251.479C353.261 248.406 352.689 242.589 351.875 238.067C351.72 237.233 351.566 236.421 351.39 235.697C350.488 231.79 350.334 218.466 350.334 210.63C350.334 207.14 350.356 204.748 350.356 204.748C350.356 204.748 350.444 204.682 350.576 204.572C352.271 203.299 363.102 195.529 366.888 202.794C367.879 204.704 368.539 206.767 368.935 208.918C370.146 215.503 368.957 222.922 367.989 229.683C367.152 235.455 365.545 243.621 365.083 249.701C364.819 253.037 364.929 255.737 365.677 257.054C367.813 260.742 369.882 263.88 374.197 276.919C375.628 281.155 381.307 293.71 381.307 293.71Z" fill="#3B3B40"/>
<path d="M347.714 137.515C347.714 137.515 345.358 122.304 357.994 122.59C370.63 122.875 370.454 130.382 370.234 137.845C370.014 145.308 365.171 144.737 370.63 155.119C376.09 165.501 365.897 165.501 365.897 165.501L357.994 154.68L347.714 137.515Z" fill="#2D3133"/>
<path d="M356.608 124.038C356.608 124.038 348.066 125.377 347.714 137.494C347.384 149.61 350.025 152.2 357.51 149.676C364.995 147.151 367.35 134.464 367.527 132.511C367.703 130.557 368.143 122.59 356.608 124.038Z" fill="#EEA886"/>
<path d="M371.621 166.182C371.665 170.352 366.844 180.318 366.096 183.412C365.347 186.485 364.18 187.473 365.171 191.424C366.162 195.375 369.222 208.699 369.09 209.862C368.957 211.025 350.378 216.908 337.389 214.537C337.389 214.537 342.453 195.726 342.827 193.553C343.201 191.38 342.386 183.325 342.188 181.042C342.012 178.759 339.701 173.864 339.767 171.582C339.855 169.255 341 167.235 342.607 164.755C343.113 163.987 343.619 163.197 344.148 162.428C345.843 159.948 347.538 157.687 348.374 156.919C348.991 156.348 349.585 155.909 350.069 155.558C351.126 154.856 351.831 154.636 351.831 154.636L359.183 153.473C359.183 153.473 363.762 155.119 366.404 155.734C366.404 155.756 371.555 156.502 371.621 166.182Z" fill="#E55353"/>
<path d="M350.091 155.58L345.821 162.275L341.88 168.443C341.88 168.399 342.144 167.477 342.585 164.755C342.673 164.25 342.761 163.658 342.849 163.021C342.871 162.824 342.915 162.648 342.981 162.45C344.698 158.587 349.893 155.668 350.091 155.58Z" fill="#E55353"/>
<path d="M362.331 144.232C361.583 145.637 360.812 154.285 360.812 154.285C360.812 154.285 350.356 158.236 351.434 155.997C351.919 154.987 352.073 153.67 352.073 152.551C352.073 151.651 352.007 150.883 351.963 150.444C351.941 150.224 351.919 150.093 351.919 150.093C351.919 150.093 363.058 142.827 362.331 144.232Z" fill="#EEA886"/>
<path d="M353.129 132.752C353.129 132.752 357.51 139.886 361.517 142.674C365.501 145.483 363.476 147.722 363.476 147.722C363.476 147.722 373.889 125.838 363.982 124.324C354.076 122.809 348 122.699 347.714 137.515C347.714 137.515 352.227 132.621 353.129 132.752Z" fill="#2D3133"/>
<path d="M357.884 149.544C356.277 151.914 352.029 152.551 352.029 152.551C352.029 151.651 351.963 150.883 351.919 150.444C354.648 150.949 357.884 149.544 357.884 149.544Z" fill="#A77860"/>
<path d="M343.025 162.407C343.025 162.407 342.805 162.867 342.607 164.755L344.148 162.428C344.148 162.428 346.899 158.499 347.846 157.468C348.793 156.436 350.091 155.558 350.091 155.558C350.091 155.558 344.676 158.17 343.025 162.407Z" fill="#DBDFF0"/>
<path d="M366.206 187.539C366.206 187.539 363.124 188.615 360.24 189.229C357.378 189.844 360.328 193.268 360.328 193.268C360.328 193.268 365.303 192.807 367.703 192.587C368.869 192.456 366.206 187.539 366.206 187.539Z" fill="#EEA886"/>
<path d="M363.828 168.289C363.828 168.289 370.542 165.655 372.524 165.501C372.524 165.501 371.181 154.746 364.577 155.887C357.994 157.029 363.828 168.289 363.828 168.289Z" fill="#E55353"/>
<path d="M351.831 154.658C351.831 154.658 346.899 162.209 348.572 162.867C350.246 163.526 359.271 161.989 363.102 154.812C363.124 154.812 357.378 151.871 351.831 154.658Z" fill="#EEA886"/>
<path d="M360.834 153.978C360.834 153.978 355.617 162.626 354.912 179.066C354.23 195.507 360.086 248.033 359.712 254.42L375.496 247.616C375.496 247.616 369.552 204.682 367.571 196.473C365.589 188.285 371.841 177.508 372.524 165.479C372.524 165.479 372.083 157.226 367.284 155.865C362.507 154.526 360.834 153.978 360.834 153.978Z" fill="#DBDFF0"/>
<path d="M371.379 162.67C371.379 162.67 370.19 154.724 364.357 156.041C358.743 157.292 364.004 167.718 364.423 168.948C364.841 170.177 368.979 180.252 369.354 181.569C370.498 185.739 369.42 185.849 367.703 186.815C362.639 189.712 352.249 189.536 351.038 190.327C349.849 191.117 349.915 193.619 351.919 193.707C354.538 193.817 369.53 192.412 371.621 192.214C373.646 192.017 377.675 191.841 376.618 184.664C375.914 179.813 371.379 162.67 371.379 162.67Z" fill="#EEA886"/>
<path d="M351.831 154.658C351.831 154.658 346.283 163.855 345.975 174.742C345.667 185.629 335.518 232.053 336.575 255.825L334.197 253.542C333.427 252.796 333.03 251.764 333.096 250.71C333.515 243.884 335.32 217.808 339.789 203.518C344.962 186.99 340.625 176.015 339.745 173.074C338.864 170.133 341.66 166.204 342.585 164.799C343.553 163.372 345.777 156.897 351.831 154.658Z" fill="#DBDFF0"/>
<path d="M363.938 174.303L368.627 203.672L349.717 206.679L344.302 177.42L363.938 174.303Z" fill="#616161"/>
<path d="M363.102 176.125L367.262 202.201L350.466 204.857L345.667 178.891L363.102 176.125Z" fill="#E0CEC7"/>
<path d="M358.016 177.596L357.73 175.774L350.928 176.849L350.972 178.715L358.016 177.596Z" fill="#616161"/>
<path d="M360.24 189.207C360.24 189.207 357.114 189.734 356.828 189.69C356.541 189.646 355.309 187.627 353.878 187.276C352.447 186.924 350.664 186.639 350.223 186.354C349.783 186.09 349.673 187.473 351.038 188.044C352.403 188.615 352.755 189.383 350.179 189.888C348.748 190.173 343.443 189.58 343.883 190.48C344.148 191.007 349.277 191.38 349.277 191.38C349.277 191.38 343.751 191.358 343.553 191.687C343.179 192.346 348.726 192.587 348.969 192.565C348.969 192.565 344.214 192.829 344.17 193.268C344.126 193.795 348.925 193.575 348.881 193.663C348.881 193.663 345.094 193.926 345.138 194.234C345.182 194.651 348.506 194.717 349.167 194.629C349.805 194.563 356.321 193.817 357.422 193.597C358.523 193.378 360.35 193.246 360.35 193.246L360.24 189.207Z" fill="#EEA886"/>
<path d="M372.282 163.526C372.282 163.526 377.653 183.764 377.191 188.746C376.75 193.729 357.422 194.651 357.422 194.651V189.427C357.422 189.427 367.527 187.188 369.42 184.883C370.41 183.676 363.806 168.289 363.806 168.289C363.806 168.289 357.906 158.675 363.498 156.217C369.134 153.758 371.533 160.607 372.282 163.526Z" fill="#DBDFF0"/>
<path d="M49.6436 218.357C49.6436 218.357 46.4736 219.937 43.4576 220.222C43.4576 220.222 40.6178 216.052 38.9448 212.935C34.9822 205.494 33.7935 202.026 34.1457 199.172C34.7621 194.036 44.8665 173.535 44.8665 173.535L56.0937 177.859L47.4862 193.092C46.6937 194.651 45.659 197.197 44.5804 199.26C43.1715 201.96 44.8665 208.15 45.8572 210.74C45.8792 210.74 47.7063 215.744 49.6436 218.357Z" fill="#EEA886"/>
<path d="M14.5532 302.885C14.5532 302.885 14.2229 304.751 15.4998 307.231C16.7766 309.712 22.5663 316.033 22.17 318.623C21.7738 321.213 15.1035 320.906 10.9208 316.34C6.73817 311.775 0.508194 307.034 0.728334 305.936C0.948475 304.839 7.24449 299.132 9.42389 298.386C11.6253 297.617 14.5532 302.885 14.5532 302.885Z" fill="#353A3D"/>
<path d="M16.8646 300.449L14.4871 302.973L9.18172 298.473L11.6253 295.642L16.8646 300.449Z" fill="#EEA886"/>
<path d="M9.57797 295.642C12.1756 292.722 33.067 271.409 33.067 271.409C43.7218 259.161 47.8824 258.832 47.8824 258.832C47.8824 258.832 50.5681 258.898 54.2225 259.381C54.7508 259.447 56.4679 259.425 56.9963 259.534C63.7766 260.632 63.9747 259.864 61.4871 265.395C57.4145 274.504 16.5124 300.8 16.5124 300.8L9.57797 295.642Z" fill="#248C9E"/>
<path d="M105.009 306.748C105.009 306.748 108.355 308.197 111.305 308.614C114.255 309.009 121.365 307.846 123.391 309.777C125.416 311.709 121.057 317.306 114.497 318.14C107.937 318.974 99.5495 320.357 98.7349 319.479C97.9204 318.601 97.238 310.787 97.9204 308.416C98.6028 306.068 105.009 306.748 105.009 306.748Z" fill="#353A3D"/>
<path d="M103.6 303.302L105.009 306.748L97.9204 308.438L96.8637 304.729L103.6 303.302Z" fill="#EEA886"/>
<path d="M92.9892 259.534C92.9892 259.534 90.1054 248.581 96.8637 274.372C96.8637 274.372 103.996 301.897 104.767 303.456C104.943 303.829 95.8291 305.497 95.675 305.431C94.0899 304.795 79.8909 269.543 76.3686 263.024C73.2426 257.295 92.9892 259.534 92.9892 259.534Z" fill="#248C9E"/>
<path d="M92.9892 259.534L78.7902 267.678C78.7902 267.678 73.1986 260.829 69.5002 258.042C69.126 257.756 68.7297 257.471 68.3555 257.164C67.8051 256.747 67.2548 256.33 66.7264 255.913C66.3302 255.605 65.9339 255.298 65.5377 254.969C62.83 252.818 60.2983 250.645 58.9115 249.042C54.8829 244.411 63.6885 215.152 74.8056 228.212C74.8056 228.19 89.7091 242.15 92.9892 259.534Z" fill="#248C9E"/>
<path d="M73.9251 224.722C73.9251 224.722 66.9246 256.769 60.0342 267.656C60.0342 267.656 48.3227 263.727 42.9513 261.62C42.9513 261.62 42.423 238.463 42.9513 232.404C43.4356 226.785 73.9251 224.722 73.9251 224.722Z" fill="#248C9E"/>
<path d="M41.5424 235.96C41.5424 235.96 44.4923 207.162 42.0487 193.773C40.4197 184.861 42.7752 170.418 48.1246 162.604C48.763 161.66 49.4454 160.804 50.1499 160.102C50.1499 160.102 60.9588 162.955 62.0375 163.702C62.1916 163.811 63.3583 164.843 64.8333 166.643C67.9153 170.396 72.4501 177.223 72.8904 183.829C73.2206 188.636 73.4848 193.048 73.771 197.614C73.859 198.997 73.9471 200.402 74.0572 201.828C74.2993 205.252 74.5855 208.852 74.9157 212.803C75.1138 214.998 76.5888 222 77.5794 228.431L41.5424 235.96Z" fill="#2AA3B8"/>
<path d="M68.3555 257.164C67.8052 256.747 67.2548 256.33 66.7265 255.913C66.3302 255.605 65.9339 255.298 65.5377 254.969C66.1101 253.169 69.192 244.938 70.4028 239.055C70.4028 239.055 71.2834 248.208 68.3555 257.164Z" fill="#196370"/>
<path d="M74.0791 201.85C74.0791 201.85 67.7831 211.376 66.6604 187.846L73.793 197.636C73.881 199.019 73.9691 200.424 74.0791 201.85Z" fill="#1D6F7D"/>
<path d="M50.1499 160.102C50.1499 160.102 51.2726 153.868 49.9738 150.246C48.6529 146.625 60.7386 156.348 60.7386 156.348C60.7386 156.348 60.7386 156.853 60.7607 157.599C60.7827 158.192 60.8047 158.938 60.8707 159.707C60.9808 161.199 61.1789 162.802 61.5532 163.723C62.3237 165.787 50.1499 160.102 50.1499 160.102Z" fill="#EEA886"/>
<path d="M67.607 138.284C67.607 138.284 70.1607 143.069 68.8619 143.793C67.8052 144.408 70.0726 149.083 70.3588 149.851C70.645 150.619 68.4436 151.146 67.9593 151.651C67.497 152.134 66.0441 158.17 64.2389 158.346C62.4337 158.521 54.2225 155.624 52.0211 153.275C49.7977 150.949 48.0365 140.479 49.5555 136.067C51.0745 131.677 63.1162 129.943 67.607 138.284Z" fill="#EEA886"/>
<path d="M68.1134 139.315C68.1134 139.315 70.7771 134.201 66.022 130.338C61.267 126.497 52.4173 133.125 51.4267 133.367C50.4361 133.608 44.5363 135.496 47.4862 144.232C50.1719 152.156 50.5241 153.056 50.5241 153.056C50.5241 153.056 52.1532 147.788 53.1878 147.042C54.8169 145.878 58.3391 146.186 58.3391 146.186C58.3391 146.186 56.6881 141.708 59.3297 141.093C61.9714 140.523 65.4497 138.328 68.1134 139.315Z" fill="#3B3B40"/>
<path d="M55.5433 143.639C55.3232 143.025 54.5747 140.391 52.3073 141.927C50.0398 143.464 53.6721 148.446 54.0684 148.512C54.4647 148.578 57.4806 148.798 55.5433 143.639Z" fill="#EEA886"/>
<path d="M60.8267 159.729C57.0843 158.719 53.8702 154.68 53.8702 154.68C54.8829 155.668 60.7166 157.621 60.7166 157.621C60.7386 158.214 60.7827 158.96 60.8267 159.729Z" fill="#A77860"/>
<path d="M102.609 193.597L96.5115 224.876L76.3906 220.969L81.696 189.558L102.609 193.597Z" fill="#616161"/>
<path d="M101.09 195.134L95.675 222.9L77.7995 219.432L82.5106 191.534L101.09 195.134Z" fill="#E0CEC7"/>
<path d="M95.4328 194.739L95.807 192.807L88.5644 191.402L87.904 193.29L95.4328 194.739Z" fill="#616161"/>
<path d="M100.254 215.547C100.254 215.547 99.3733 215.92 98.911 215.898C98.911 215.898 98.0745 215.788 97.4581 215.744C97.26 215.723 97.1059 215.723 96.9958 215.723C96.5335 215.744 95.5429 215.942 94.4422 215.701C93.3415 215.459 88.8066 213.198 88.8066 213.198L89.3349 210.411L89.467 207.733C89.467 207.733 96.0492 205.494 97.1059 205.604C97.2159 205.604 97.304 205.626 97.4141 205.648C98.2946 205.823 98.889 206.328 99.3513 206.482C99.5274 206.526 101.134 207.184 101.311 207.689C101.531 208.369 101.399 208.94 101.09 209.335C101.09 209.335 101.465 210.696 101.068 211.574C101.068 211.574 101.465 212.825 100.65 213.769C100.628 213.769 100.892 215.086 100.254 215.547Z" fill="#EEA886"/>
<path d="M90.986 207.118C90.986 207.118 90.3696 210.608 88.8066 213.198C88.8066 213.198 83.7653 213.001 80.2651 212.474C71.9218 211.223 68.4215 210.103 66.3082 208.128C62.5218 204.594 52.0211 184.269 52.0211 184.269L62.1916 177.859L69.3461 193.817C70.1166 195.397 71.5475 197.724 72.5822 199.809C73.9251 202.553 79.9129 204.879 82.5986 205.626C82.5766 205.604 87.7059 207.118 90.986 207.118Z" fill="#EEA886"/>
<path d="M67.2548 186.529L55.6974 192.522C55.6974 192.522 53.408 188.11 52.7255 186.661C50.8103 182.535 47.8164 176.301 51.5588 173.667C59.6379 167.982 63.1161 177.42 65.0974 182.578C65.7358 184.181 67.2548 186.529 67.2548 186.529Z" fill="#2AA3B8"/>
<path d="M178.646 50.2431H168.85V91.3111H178.646V50.2431Z" fill="url(#paint8_linear_6_1781)"/>
<path d="M153.154 75.639V65.8932H194.342V75.639H153.154Z" fill="url(#paint9_linear_6_1781)"/>
<path d="M81.4979 69.3174C72.0979 64.8836 61.245 67.2322 54.4867 74.3878C52.8576 76.1219 51.4487 78.1412 50.37 80.4021C47.112 87.2723 47.5082 94.9328 50.7883 101.189C53.0557 105.513 56.7101 109.178 61.4871 111.439C61.9714 111.659 62.4337 111.878 62.918 112.054C65.0974 112.91 67.3429 113.415 69.5883 113.59C78.9883 114.358 88.3223 109.332 92.593 100.332C98.1405 88.721 93.1654 74.8268 81.4979 69.3174ZM87.3316 97.8522C84.1176 104.613 77.1391 108.366 70.0946 107.795C68.4216 107.664 66.7265 107.269 65.0974 106.632C64.7452 106.5 64.371 106.325 64.0188 106.171C60.4305 104.481 57.7007 101.737 55.9836 98.4887C53.518 93.7914 53.2098 88.0625 55.6754 82.9043C56.4899 81.2142 57.5246 79.6997 58.7574 78.4046C63.8206 73.0489 71.9658 71.2709 79.0103 74.5854C87.7279 78.7119 91.4703 89.1381 87.3316 97.8522Z" fill="#E0E0E0"/>
<path d="M55.9836 98.4888L50.7883 101.189C47.5082 94.9329 47.112 87.2724 50.37 80.4021C51.4487 78.1413 52.8356 76.1219 54.4867 74.3879L58.7354 78.3827C57.5026 79.6778 56.4679 81.1923 55.6534 82.8825C53.2098 88.0626 53.518 93.7915 55.9836 98.4888Z" fill="#2D5BAD"/>
<path d="M65.0754 106.632L62.94 112.054C62.4557 111.856 61.9714 111.659 61.5091 111.439C56.7321 109.178 53.0778 105.535 50.8103 101.189L55.9836 98.4887C57.6787 101.737 60.4304 104.481 64.0187 106.171C64.371 106.347 64.7232 106.5 65.0754 106.632Z" fill="#5D96FF"/>
<path d="M69.6103 113.612C67.3649 113.437 65.1194 112.932 62.94 112.076L65.0754 106.654C66.7044 107.291 68.3995 107.686 70.0726 107.817L69.6103 113.612Z" fill="#5D96FF"/>
<defs>
<linearGradient id="paint0_linear_6_1781" x1="245.401" y1="40.9175" x2="269.948" y2="122.014" gradientUnits="userSpaceOnUse">
<stop stop-color="#40D5E6"/>
<stop offset="1" stop-color="#5577FF"/>
</linearGradient>
<linearGradient id="paint1_linear_6_1781" x1="292.374" y1="16.5754" x2="333.93" y2="153.86" gradientUnits="userSpaceOnUse">
<stop stop-color="#40D5E6"/>
<stop offset="1" stop-color="#5577FF"/>
</linearGradient>
<linearGradient id="paint2_linear_6_1781" x1="316.24" y1="73.616" x2="335.048" y2="135.749" gradientUnits="userSpaceOnUse">
<stop stop-color="#40D5E6"/>
<stop offset="1" stop-color="#5577FF"/>
</linearGradient>
<linearGradient id="paint3_linear_6_1781" x1="203.115" y1="378.549" x2="209.487" y2="15.5591" gradientUnits="userSpaceOnUse">
<stop stop-color="#40D5E6"/>
<stop offset="1" stop-color="#5577FF"/>
</linearGradient>
<linearGradient id="paint4_linear_6_1781" x1="224.932" y1="72.6603" x2="272.642" y2="72.6603" gradientUnits="userSpaceOnUse">
<stop stop-color="#40D5E6"/>
<stop offset="1" stop-color="#5577FF"/>
</linearGradient>
<linearGradient id="paint5_linear_6_1781" x1="224.932" y1="97.8818" x2="268.727" y2="97.8818" gradientUnits="userSpaceOnUse">
<stop stop-color="#40D5E6"/>
<stop offset="1" stop-color="#5577FF"/>
</linearGradient>
<linearGradient id="paint6_linear_6_1781" x1="224.932" y1="85.271" x2="262.824" y2="85.271" gradientUnits="userSpaceOnUse">
<stop stop-color="#40D5E6"/>
<stop offset="1" stop-color="#5577FF"/>
</linearGradient>
<linearGradient id="paint7_linear_6_1781" x1="173.743" y1="121.817" x2="173.743" y2="69.5778" gradientUnits="userSpaceOnUse">
<stop stop-color="#7DB3E0"/>
<stop offset="1" stop-color="white"/>
</linearGradient>
<linearGradient id="paint8_linear_6_1781" x1="172.004" y1="44.2278" x2="176.146" y2="107.816" gradientUnits="userSpaceOnUse">
<stop stop-color="#40D5E6"/>
<stop offset="1" stop-color="#5577FF"/>
</linearGradient>
<linearGradient id="paint9_linear_6_1781" x1="172.004" y1="44.228" x2="176.146" y2="107.816" gradientUnits="userSpaceOnUse">
<stop stop-color="#40D5E6"/>
<stop offset="1" stop-color="#5577FF"/>
</linearGradient>
</defs>
</svg>
